solid OpenSCAD_Model
  facet normal 1 0 0
    outer loop
      vertex 10 2 20
      vertex 10 0 20
      vertex 10 2 3
    endloop
  endfacet
  facet normal 1 0 0
    outer loop
      vertex 10 160 3
      vertex 10 162 22
      vertex 10 160 20
    endloop
  endfacet
  facet normal 1 -0 0
    outer loop
      vertex 10 148 22
      vertex 10 160 20
      vertex 10 162 22
    endloop
  endfacet
  facet normal 1 0 0
    outer loop
      vertex 10 160 20
      vertex 10 148 22
      vertex 10 148 20
    endloop
  endfacet
  facet normal 1 0 0
    outer loop
      vertex 10 162 22
      vertex 10 160 3
      vertex 10 162 0
    endloop
  endfacet
  facet normal 1 -0 0
    outer loop
      vertex 10 2 3
      vertex 10 162 0
      vertex 10 160 3
    endloop
  endfacet
  facet normal 1 0 0
    outer loop
      vertex 10 2 3
      vertex 10 0 0
      vertex 10 162 0
    endloop
  endfacet
  facet normal 1 0 0
    outer loop
      vertex 10 0 0
      vertex 10 2 3
      vertex 10 0 20
    endloop
  endfacet
  facet normal -0 0 1
    outer loop
      vertex 0 2 20
      vertex 10 0 20
      vertex 10 2 20
    endloop
  endfacet
  facet normal 0 0 1
    outer loop
      vertex 10 0 20
      vertex 0 2 20
      vertex 0 0 20
    endloop
  endfacet
  facet normal 0 0 -1
    outer loop
      vertex 0 0 0
      vertex 10 162 0
      vertex 10 0 0
    endloop
  endfacet
  facet normal -0 0 -1
    outer loop
      vertex 10 162 0
      vertex 0 0 0
      vertex 0 162 0
    endloop
  endfacet
  facet normal -1 0 0
    outer loop
      vertex 0 162 0
      vertex 0 160 3
      vertex 0 162 22
    endloop
  endfacet
  facet normal -1 0 0
    outer loop
      vertex 0 162 0
      vertex 0 2 3
      vertex 0 160 3
    endloop
  endfacet
  facet normal -1 0 0
    outer loop
      vertex 0 0 0
      vertex 0 2 3
      vertex 0 162 0
    endloop
  endfacet
  facet normal -1 0 0
    outer loop
      vertex 0 0 20
      vertex 0 2 3
      vertex 0 0 0
    endloop
  endfacet
  facet normal -1 0 0
    outer loop
      vertex 0 2 3
      vertex 0 0 20
      vertex 0 2 20
    endloop
  endfacet
  facet normal -1 0 0
    outer loop
      vertex 0 160 20
      vertex 0 162 22
      vertex 0 160 3
    endloop
  endfacet
  facet normal -1 0 0
    outer loop
      vertex 0 148 22
      vertex 0 160 20
      vertex 0 148 20
    endloop
  endfacet
  facet normal -1 0 0
    outer loop
      vertex 0 160 20
      vertex 0 148 22
      vertex 0 162 22
    endloop
  endfacet
  facet normal 0 1 -0
    outer loop
      vertex 10 2 3
      vertex 0 2 20
      vertex 10 2 20
    endloop
  endfacet
  facet normal 0 1 0
    outer loop
      vertex 0 2 20
      vertex 10 2 3
      vertex 0 2 3
    endloop
  endfacet
  facet normal 0 -1 0
    outer loop
      vertex 0 0 20
      vertex 2.5 0 10
      vertex 10 0 20
    endloop
  endfacet
  facet normal 0 -1 0
    outer loop
      vertex 0 0 0
      vertex 2.5 0 10
      vertex 0 0 20
    endloop
  endfacet
  facet normal 0 -1 -0
    outer loop
      vertex 2.5 0 8
      vertex 0 0 0
      vertex 7.5 0 8
    endloop
  endfacet
  facet normal 0 -1 -0
    outer loop
      vertex 2.5 0 10
      vertex 0 0 0
      vertex 2.5 0 8
    endloop
  endfacet
  facet normal 0 -1 0
    outer loop
      vertex 7.5 0 10
      vertex 10 0 20
      vertex 2.5 0 10
    endloop
  endfacet
  facet normal 0 -1 0
    outer loop
      vertex 10 0 0
      vertex 7.5 0 10
      vertex 7.5 0 8
    endloop
  endfacet
  facet normal 0 -1 0
    outer loop
      vertex 7.5 0 10
      vertex 10 0 0
      vertex 10 0 20
    endloop
  endfacet
  facet normal 0 -1 0
    outer loop
      vertex 10 0 0
      vertex 7.5 0 8
      vertex 0 0 0
    endloop
  endfacet
  facet normal -0 0 1
    outer loop
      vertex 0 160 3
      vertex 10 2 3
      vertex 10 160 3
    endloop
  endfacet
  facet normal 0 0 1
    outer loop
      vertex 10 2 3
      vertex 0 160 3
      vertex 0 2 3
    endloop
  endfacet
  facet normal 0 -1 0
    outer loop
      vertex 0 160 3
      vertex 10 160 20
      vertex 0 160 20
    endloop
  endfacet
  facet normal 0 -1 -0
    outer loop
      vertex 10 160 20
      vertex 0 160 3
      vertex 10 160 3
    endloop
  endfacet
  facet normal 0 0 -1
    outer loop
      vertex 0 148 20
      vertex 10 160 20
      vertex 10 148 20
    endloop
  endfacet
  facet normal -0 0 -1
    outer loop
      vertex 10 160 20
      vertex 0 148 20
      vertex 0 160 20
    endloop
  endfacet
  facet normal 0 1 -0
    outer loop
      vertex 10 162 0
      vertex 0 162 22
      vertex 10 162 22
    endloop
  endfacet
  facet normal 0 1 0
    outer loop
      vertex 0 162 22
      vertex 10 162 0
      vertex 0 162 0
    endloop
  endfacet
  facet normal -0 0 1
    outer loop
      vertex 0 162 22
      vertex 10 148 22
      vertex 10 162 22
    endloop
  endfacet
  facet normal 0 0 1
    outer loop
      vertex 10 148 22
      vertex 0 162 22
      vertex 0 148 22
    endloop
  endfacet
  facet normal 0 -1 0
    outer loop
      vertex 0 148 20
      vertex 10 148 22
      vertex 0 148 22
    endloop
  endfacet
  facet normal 0 -1 -0
    outer loop
      vertex 10 148 22
      vertex 0 148 20
      vertex 10 148 20
    endloop
  endfacet
  facet normal 1 0 0
    outer loop
      vertex 7.5 0 10
      vertex 7.5 -13 8
      vertex 7.5 0 8
    endloop
  endfacet
  facet normal 1 -0 0
    outer loop
      vertex 7.5 -15 10
      vertex 7.5 -13 8
      vertex 7.5 0 10
    endloop
  endfacet
  facet normal 1 0 0
    outer loop
      vertex 7.5 -15 0
      vertex 7.5 -13 8
      vertex 7.5 -15 10
    endloop
  endfacet
  facet normal 1 0 0
    outer loop
      vertex 7.5 -13 8
      vertex 7.5 -15 0
      vertex 7.5 -13 0
    endloop
  endfacet
  facet normal -0 0 1
    outer loop
      vertex 2.5 0 10
      vertex 7.5 -15 10
      vertex 7.5 0 10
    endloop
  endfacet
  facet normal 0 0 1
    outer loop
      vertex 7.5 -15 10
      vertex 2.5 0 10
      vertex 2.5 -15 10
    endloop
  endfacet
  facet normal 0 0 -1
    outer loop
      vertex 2.5 -13 8
      vertex 7.5 0 8
      vertex 7.5 -13 8
    endloop
  endfacet
  facet normal -0 0 -1
    outer loop
      vertex 7.5 0 8
      vertex 2.5 -13 8
      vertex 2.5 0 8
    endloop
  endfacet
  facet normal -1 0 0
    outer loop
      vertex 2.5 -13 0
      vertex 2.5 -15 0
      vertex 2.5 -13 8
    endloop
  endfacet
  facet normal -1 0 0
    outer loop
      vertex 2.5 -13 8
      vertex 2.5 0 10
      vertex 2.5 0 8
    endloop
  endfacet
  facet normal -1 0 0
    outer loop
      vertex 2.5 -13 8
      vertex 2.5 -15 10
      vertex 2.5 0 10
    endloop
  endfacet
  facet normal -1 0 0
    outer loop
      vertex 2.5 -15 10
      vertex 2.5 -13 8
      vertex 2.5 -15 0
    endloop
  endfacet
  facet normal 0 -1 0
    outer loop
      vertex 2.5 -15 0
      vertex 7.5 -15 10
      vertex 2.5 -15 10
    endloop
  endfacet
  facet normal 0 -1 -0
    outer loop
      vertex 7.5 -15 10
      vertex 2.5 -15 0
      vertex 7.5 -15 0
    endloop
  endfacet
  facet normal 0 0 -1
    outer loop
      vertex 2.5 -15 0
      vertex 7.5 -13 0
      vertex 7.5 -15 0
    endloop
  endfacet
  facet normal -0 0 -1
    outer loop
      vertex 7.5 -13 0
      vertex 2.5 -15 0
      vertex 2.5 -13 0
    endloop
  endfacet
  facet normal 0 1 -0
    outer loop
      vertex 7.5 -13 0
      vertex 2.5 -13 8
      vertex 7.5 -13 8
    endloop
  endfacet
  facet normal 0 1 0
    outer loop
      vertex 2.5 -13 8
      vertex 7.5 -13 0
      vertex 2.5 -13 0
    endloop
  endfacet
endsolid OpenSCAD_Model
