solid OpenSCAD_Model
  facet normal -1 0 0
    outer loop
      vertex 10.005 0 0
      vertex 10.005 0.0547819 32.5
      vertex 10.005 0.0547819 0
    endloop
  endfacet
  facet normal -1 -0 0
    outer loop
      vertex 10.005 0.0547819 32.5
      vertex 10.005 0 0
      vertex 10.005 0 32.5
    endloop
  endfacet
  facet normal 0 -1 0
    outer loop
      vertex 0 10.005 0
      vertex 0.000525435 10.005 32.5
      vertex 0 10.005 32.5
    endloop
  endfacet
  facet normal 0 -1 -0
    outer loop
      vertex 0.000525435 10.005 32.5
      vertex 0 10.005 0
      vertex 0.000525435 10.005 0
    endloop
  endfacet
  facet normal -0.994524 0.104512 0
    outer loop
      vertex 0 10 0
      vertex 0.000525435 10.005 32.5
      vertex 0.000525435 10.005 0
    endloop
  endfacet
  facet normal -0.994524 0.104512 0
    outer loop
      vertex 0.000525435 10.005 32.5
      vertex 0 10 0
      vertex 0 10 32.5
    endloop
  endfacet
  facet normal -0.406738 -0.913545 0
    outer loop
      vertex 5 1.33975 0
      vertex 6.90983 0.489435 32.5
      vertex 5 1.33975 32.5
    endloop
  endfacet
  facet normal -0.406738 -0.913545 -0
    outer loop
      vertex 6.90983 0.489435 32.5
      vertex 5 1.33975 0
      vertex 6.90983 0.489435 0
    endloop
  endfacet
  facet normal -0.951057 -0.309017 0
    outer loop
      vertex 0.864546 5.93263 0
      vertex 0.218525 7.92088 32.5
      vertex 0.218525 7.92088 0
    endloop
  endfacet
  facet normal -0.951057 -0.309017 0
    outer loop
      vertex 0.218525 7.92088 32.5
      vertex 0.864546 5.93263 0
      vertex 0.864546 5.93263 32.5
    endloop
  endfacet
  facet normal -0.743147 -0.669129 0
    outer loop
      vertex 3.30869 2.56855 0
      vertex 1.90983 4.12215 32.5
      vertex 1.90983 4.12215 0
    endloop
  endfacet
  facet normal -0.743147 -0.669129 0
    outer loop
      vertex 1.90983 4.12215 32.5
      vertex 3.30869 2.56855 0
      vertex 3.30869 2.56855 32.5
    endloop
  endfacet
  facet normal 0 -1 0
    outer loop
      vertex 8.95471 0.0547819 0
      vertex 10.005 0.0547819 32.5
      vertex 8.95471 0.0547819 32.5
    endloop
  endfacet
  facet normal 0 -1 -0
    outer loop
      vertex 10.005 0.0547819 32.5
      vertex 8.95471 0.0547819 0
      vertex 10.005 0.0547819 0
    endloop
  endfacet
  facet normal -0.994522 -0.104529 0
    outer loop
      vertex 0.218525 7.92088 0
      vertex 0 10 32.5
      vertex 0 10 0
    endloop
  endfacet
  facet normal -0.994522 -0.104529 0
    outer loop
      vertex 0 10 32.5
      vertex 0.218525 7.92088 0
      vertex 0.218525 7.92088 32.5
    endloop
  endfacet
  facet normal -0.866025 -0.500001 0
    outer loop
      vertex 1.90983 4.12215 0
      vertex 0.864546 5.93263 32.5
      vertex 0.864546 5.93263 0
    endloop
  endfacet
  facet normal -0.866025 -0.500001 0
    outer loop
      vertex 0.864546 5.93263 32.5
      vertex 1.90983 4.12215 0
      vertex 1.90983 4.12215 32.5
    endloop
  endfacet
  facet normal -0.207912 -0.978148 0
    outer loop
      vertex 6.90983 0.489435 0
      vertex 8.95471 0.0547819 32.5
      vertex 6.90983 0.489435 32.5
    endloop
  endfacet
  facet normal -0.207912 -0.978148 -0
    outer loop
      vertex 8.95471 0.0547819 32.5
      vertex 6.90983 0.489435 0
      vertex 8.95471 0.0547819 0
    endloop
  endfacet
  facet normal -0.587783 -0.809019 0
    outer loop
      vertex 3.30869 2.56855 0
      vertex 5 1.33975 32.5
      vertex 3.30869 2.56855 32.5
    endloop
  endfacet
  facet normal -0.587783 -0.809019 -0
    outer loop
      vertex 5 1.33975 32.5
      vertex 3.30869 2.56855 0
      vertex 5 1.33975 0
    endloop
  endfacet
  facet normal 1 -0 0
    outer loop
      vertex 71.995 86.9452 32.5
      vertex 71.995 87 0
      vertex 71.995 87 32.5
    endloop
  endfacet
  facet normal 1 0 0
    outer loop
      vertex 71.995 87 0
      vertex 71.995 86.9452 32.5
      vertex 71.995 86.9452 0
    endloop
  endfacet
  facet normal 0 1 -0
    outer loop
      vertex 82 76.995 0
      vertex 81.9995 76.995 32.5
      vertex 82 76.995 32.5
    endloop
  endfacet
  facet normal 0 1 0
    outer loop
      vertex 81.9995 76.995 32.5
      vertex 82 76.995 0
      vertex 81.9995 76.995 0
    endloop
  endfacet
  facet normal 0.995037 -0.0995037 0
    outer loop
      vertex 81.9995 76.995 32.5
      vertex 82 77 0
      vertex 82 77 32.5
    endloop
  endfacet
  facet normal 0.995037 -0.0995037 0
    outer loop
      vertex 82 77 0
      vertex 81.9995 76.995 32.5
      vertex 81.9995 76.995 0
    endloop
  endfacet
  facet normal 0.406738 0.913545 -0
    outer loop
      vertex 77 85.6603 0
      vertex 75.0902 86.5106 32.5
      vertex 77 85.6603 32.5
    endloop
  endfacet
  facet normal 0.406738 0.913545 0
    outer loop
      vertex 75.0902 86.5106 32.5
      vertex 77 85.6603 0
      vertex 75.0902 86.5106 0
    endloop
  endfacet
  facet normal 0.951062 0.309001 0
    outer loop
      vertex 81.7815 79.0791 32.5
      vertex 81.1355 81.0674 0
      vertex 81.1355 81.0674 32.5
    endloop
  endfacet
  facet normal 0.951062 0.309001 0
    outer loop
      vertex 81.1355 81.0674 0
      vertex 81.7815 79.0791 32.5
      vertex 81.7815 79.0791 0
    endloop
  endfacet
  facet normal 0.743116 0.669163 0
    outer loop
      vertex 80.0902 82.8779 32.5
      vertex 78.6913 84.4314 0
      vertex 78.6913 84.4314 32.5
    endloop
  endfacet
  facet normal 0.743116 0.669163 0
    outer loop
      vertex 78.6913 84.4314 0
      vertex 80.0902 82.8779 32.5
      vertex 80.0902 82.8779 0
    endloop
  endfacet
  facet normal 0 1 -0
    outer loop
      vertex 73.0453 86.9452 0
      vertex 71.995 86.9452 32.5
      vertex 73.0453 86.9452 32.5
    endloop
  endfacet
  facet normal 0 1 0
    outer loop
      vertex 71.995 86.9452 32.5
      vertex 73.0453 86.9452 0
      vertex 71.995 86.9452 0
    endloop
  endfacet
  facet normal 0.994523 0.104518 0
    outer loop
      vertex 82 77 32.5
      vertex 81.7815 79.0791 0
      vertex 81.7815 79.0791 32.5
    endloop
  endfacet
  facet normal 0.994523 0.104518 0
    outer loop
      vertex 81.7815 79.0791 0
      vertex 82 77 32.5
      vertex 82 77 0
    endloop
  endfacet
  facet normal 0.866024 0.500003 0
    outer loop
      vertex 81.1355 81.0674 32.5
      vertex 80.0902 82.8779 0
      vertex 80.0902 82.8779 32.5
    endloop
  endfacet
  facet normal 0.866024 0.500003 0
    outer loop
      vertex 80.0902 82.8779 0
      vertex 81.1355 81.0674 32.5
      vertex 81.1355 81.0674 0
    endloop
  endfacet
  facet normal 0.207886 0.978153 -0
    outer loop
      vertex 75.0902 86.5106 0
      vertex 73.0453 86.9452 32.5
      vertex 75.0902 86.5106 32.5
    endloop
  endfacet
  facet normal 0.207886 0.978153 0
    outer loop
      vertex 73.0453 86.9452 32.5
      vertex 75.0902 86.5106 0
      vertex 73.0453 86.9452 0
    endloop
  endfacet
  facet normal 0.587816 0.808995 -0
    outer loop
      vertex 78.6913 84.4314 0
      vertex 77 85.6603 32.5
      vertex 78.6913 84.4314 32.5
    endloop
  endfacet
  facet normal 0.587816 0.808995 0
    outer loop
      vertex 77 85.6603 32.5
      vertex 78.6913 84.4314 0
      vertex 77 85.6603 0
    endloop
  endfacet
  facet normal 0 1 -0
    outer loop
      vertex 0.0547819 76.995 0
      vertex 0 76.995 32.5
      vertex 0.0547819 76.995 32.5
    endloop
  endfacet
  facet normal 0 1 0
    outer loop
      vertex 0 76.995 32.5
      vertex 0.0547819 76.995 0
      vertex 0 76.995 0
    endloop
  endfacet
  facet normal -1 0 0
    outer loop
      vertex 10.005 86.9995 0
      vertex 10.005 87 32.5
      vertex 10.005 87 0
    endloop
  endfacet
  facet normal -1 -0 0
    outer loop
      vertex 10.005 87 32.5
      vertex 10.005 86.9995 0
      vertex 10.005 86.9995 32.5
    endloop
  endfacet
  facet normal 0.0995037 0.995037 -0
    outer loop
      vertex 10.005 86.9995 0
      vertex 10 87 32.5
      vertex 10.005 86.9995 32.5
    endloop
  endfacet
  facet normal 0.0995037 0.995037 0
    outer loop
      vertex 10 87 32.5
      vertex 10.005 86.9995 0
      vertex 10 87 0
    endloop
  endfacet
  facet normal -0.913542 0.406744 0
    outer loop
      vertex 0.489435 80.0902 0
      vertex 1.33975 82 32.5
      vertex 1.33975 82 0
    endloop
  endfacet
  facet normal -0.913542 0.406744 0
    outer loop
      vertex 1.33975 82 32.5
      vertex 0.489435 80.0902 0
      vertex 0.489435 80.0902 32.5
    endloop
  endfacet
  facet normal -0.309008 0.95106 0
    outer loop
      vertex 7.92088 86.7815 0
      vertex 5.93263 86.1355 32.5
      vertex 7.92088 86.7815 32.5
    endloop
  endfacet
  facet normal -0.309008 0.95106 0
    outer loop
      vertex 5.93263 86.1355 32.5
      vertex 7.92088 86.7815 0
      vertex 5.93263 86.1355 0
    endloop
  endfacet
  facet normal -0.669139 0.743137 0
    outer loop
      vertex 4.12215 85.0902 0
      vertex 2.56855 83.6913 32.5
      vertex 4.12215 85.0902 32.5
    endloop
  endfacet
  facet normal -0.669139 0.743137 0
    outer loop
      vertex 2.56855 83.6913 32.5
      vertex 4.12215 85.0902 0
      vertex 2.56855 83.6913 0
    endloop
  endfacet
  facet normal -1 0 0
    outer loop
      vertex 0.0547819 76.995 0
      vertex 0.0547819 78.0453 32.5
      vertex 0.0547819 78.0453 0
    endloop
  endfacet
  facet normal -1 -0 0
    outer loop
      vertex 0.0547819 78.0453 32.5
      vertex 0.0547819 76.995 0
      vertex 0.0547819 76.995 32.5
    endloop
  endfacet
  facet normal -0.104517 0.994523 0
    outer loop
      vertex 10 87 0
      vertex 7.92088 86.7815 32.5
      vertex 10 87 32.5
    endloop
  endfacet
  facet normal -0.104517 0.994523 0
    outer loop
      vertex 7.92088 86.7815 32.5
      vertex 10 87 0
      vertex 7.92088 86.7815 0
    endloop
  endfacet
  facet normal -0.500007 0.866021 0
    outer loop
      vertex 5.93263 86.1355 0
      vertex 4.12215 85.0902 32.5
      vertex 5.93263 86.1355 32.5
    endloop
  endfacet
  facet normal -0.500007 0.866021 0
    outer loop
      vertex 4.12215 85.0902 32.5
      vertex 5.93263 86.1355 0
      vertex 4.12215 85.0902 0
    endloop
  endfacet
  facet normal -0.978148 0.20791 0
    outer loop
      vertex 0.0547819 78.0453 0
      vertex 0.489435 80.0902 32.5
      vertex 0.489435 80.0902 0
    endloop
  endfacet
  facet normal -0.978148 0.20791 0
    outer loop
      vertex 0.489435 80.0902 32.5
      vertex 0.0547819 78.0453 0
      vertex 0.0547819 78.0453 32.5
    endloop
  endfacet
  facet normal -0.809017 0.587785 0
    outer loop
      vertex 1.33975 82 0
      vertex 2.56855 83.6913 32.5
      vertex 2.56855 83.6913 0
    endloop
  endfacet
  facet normal -0.809017 0.587785 0
    outer loop
      vertex 2.56855 83.6913 32.5
      vertex 1.33975 82 0
      vertex 1.33975 82 32.5
    endloop
  endfacet
  facet normal 0 -1 0
    outer loop
      vertex 81.9452 10.005 0
      vertex 82 10.005 32.5
      vertex 81.9452 10.005 32.5
    endloop
  endfacet
  facet normal 0 -1 -0
    outer loop
      vertex 82 10.005 32.5
      vertex 81.9452 10.005 0
      vertex 82 10.005 0
    endloop
  endfacet
  facet normal 1 -0 0
    outer loop
      vertex 71.995 0 32.5
      vertex 71.995 0.000525435 0
      vertex 71.995 0.000525435 32.5
    endloop
  endfacet
  facet normal 1 0 0
    outer loop
      vertex 71.995 0.000525435 0
      vertex 71.995 0 32.5
      vertex 71.995 0 0
    endloop
  endfacet
  facet normal -0.104512 -0.994524 0
    outer loop
      vertex 71.995 0.000525435 0
      vertex 72 0 32.5
      vertex 71.995 0.000525435 32.5
    endloop
  endfacet
  facet normal -0.104512 -0.994524 -0
    outer loop
      vertex 72 0 32.5
      vertex 71.995 0.000525435 0
      vertex 72 0 0
    endloop
  endfacet
  facet normal 0.913547 -0.406732 0
    outer loop
      vertex 80.6603 5 32.5
      vertex 81.5106 6.90983 0
      vertex 81.5106 6.90983 32.5
    endloop
  endfacet
  facet normal 0.913547 -0.406732 0
    outer loop
      vertex 81.5106 6.90983 0
      vertex 80.6603 5 32.5
      vertex 80.6603 5 0
    endloop
  endfacet
  facet normal 0.30901 -0.951059 0
    outer loop
      vertex 74.0791 0.218525 0
      vertex 76.0674 0.864546 32.5
      vertex 74.0791 0.218525 32.5
    endloop
  endfacet
  facet normal 0.30901 -0.951059 0
    outer loop
      vertex 76.0674 0.864546 32.5
      vertex 74.0791 0.218525 0
      vertex 76.0674 0.864546 0
    endloop
  endfacet
  facet normal 0.669152 -0.743125 0
    outer loop
      vertex 77.8779 1.90983 0
      vertex 79.4314 3.30869 32.5
      vertex 77.8779 1.90983 32.5
    endloop
  endfacet
  facet normal 0.669152 -0.743125 0
    outer loop
      vertex 79.4314 3.30869 32.5
      vertex 77.8779 1.90983 0
      vertex 79.4314 3.30869 0
    endloop
  endfacet
  facet normal 1 -0 0
    outer loop
      vertex 81.9452 8.95471 32.5
      vertex 81.9452 10.005 0
      vertex 81.9452 10.005 32.5
    endloop
  endfacet
  facet normal 1 0 0
    outer loop
      vertex 81.9452 10.005 0
      vertex 81.9452 8.95471 32.5
      vertex 81.9452 8.95471 0
    endloop
  endfacet
  facet normal 0.10453 -0.994522 0
    outer loop
      vertex 72 0 0
      vertex 74.0791 0.218525 32.5
      vertex 72 0 32.5
    endloop
  endfacet
  facet normal 0.10453 -0.994522 0
    outer loop
      vertex 74.0791 0.218525 32.5
      vertex 72 0 0
      vertex 74.0791 0.218525 0
    endloop
  endfacet
  facet normal 0.499997 -0.866027 0
    outer loop
      vertex 76.0674 0.864546 0
      vertex 77.8779 1.90983 32.5
      vertex 76.0674 0.864546 32.5
    endloop
  endfacet
  facet normal 0.499997 -0.866027 0
    outer loop
      vertex 77.8779 1.90983 32.5
      vertex 76.0674 0.864546 0
      vertex 77.8779 1.90983 0
    endloop
  endfacet
  facet normal 0.978153 -0.207888 0
    outer loop
      vertex 81.5106 6.90983 32.5
      vertex 81.9452 8.95471 0
      vertex 81.9452 8.95471 32.5
    endloop
  endfacet
  facet normal 0.978153 -0.207888 0
    outer loop
      vertex 81.9452 8.95471 0
      vertex 81.5106 6.90983 32.5
      vertex 81.5106 6.90983 0
    endloop
  endfacet
  facet normal 0.808996 -0.587814 0
    outer loop
      vertex 79.4314 3.30869 32.5
      vertex 80.6603 5 0
      vertex 80.6603 5 32.5
    endloop
  endfacet
  facet normal 0.808996 -0.587814 0
    outer loop
      vertex 80.6603 5 0
      vertex 79.4314 3.30869 32.5
      vertex 79.4314 3.30869 0
    endloop
  endfacet
  facet normal 1 -0 0
    outer loop
      vertex 82 10.005 32.5
      vertex 82 76.995 0
      vertex 82 76.995 32.5
    endloop
  endfacet
  facet normal 1 0 0
    outer loop
      vertex 82 76.995 0
      vertex 82 10.005 32.5
      vertex 82 10.005 0
    endloop
  endfacet
  facet normal -0 0 1
    outer loop
      vertex 0 76.995 32.5
      vertex 0.000525435 10.005 32.5
      vertex 0.0547819 76.995 32.5
    endloop
  endfacet
  facet normal 0 0 1
    outer loop
      vertex 0.000525435 10.005 32.5
      vertex 0 76.995 32.5
      vertex 0 10.005 32.5
    endloop
  endfacet
  facet normal 0 0 1
    outer loop
      vertex 7.92088 86.7815 32.5
      vertex 10.005 86.9995 32.5
      vertex 10 87 32.5
    endloop
  endfacet
  facet normal 0 0 1
    outer loop
      vertex 10.005 86.9995 32.5
      vertex 0.000525435 10.005 32.5
      vertex 10.005 0.0547819 32.5
    endloop
  endfacet
  facet normal 0 0 1
    outer loop
      vertex 10.005 86.9995 32.5
      vertex 7.92088 86.7815 32.5
      vertex 0.0547819 76.995 32.5
    endloop
  endfacet
  facet normal 0 0 1
    outer loop
      vertex 10.005 86.9995 32.5
      vertex 0.0547819 76.995 32.5
      vertex 0.000525435 10.005 32.5
    endloop
  endfacet
  facet normal 0 0 1
    outer loop
      vertex 0.0547819 76.995 32.5
      vertex 7.92088 86.7815 32.5
      vertex 5.93263 86.1355 32.5
    endloop
  endfacet
  facet normal -0 -0 1
    outer loop
      vertex 5 1.33975 32.5
      vertex 10.005 0.0547819 32.5
      vertex 0.000525435 10.005 32.5
    endloop
  endfacet
  facet normal 0 0 1
    outer loop
      vertex 0.0547819 76.995 32.5
      vertex 5.93263 86.1355 32.5
      vertex 4.12215 85.0902 32.5
    endloop
  endfacet
  facet normal 0 0 1
    outer loop
      vertex 10.005 0.0547819 32.5
      vertex 6.90983 0.489435 32.5
      vertex 8.95471 0.0547819 32.5
    endloop
  endfacet
  facet normal 0 0 1
    outer loop
      vertex 0.0547819 76.995 32.5
      vertex 4.12215 85.0902 32.5
      vertex 2.56855 83.6913 32.5
    endloop
  endfacet
  facet normal 0 0 1
    outer loop
      vertex 10.005 0.0547819 32.5
      vertex 5 1.33975 32.5
      vertex 6.90983 0.489435 32.5
    endloop
  endfacet
  facet normal 0 0 1
    outer loop
      vertex 0.0547819 76.995 32.5
      vertex 2.56855 83.6913 32.5
      vertex 1.33975 82 32.5
    endloop
  endfacet
  facet normal 0 0 1
    outer loop
      vertex 5 1.33975 32.5
      vertex 0.000525435 10.005 32.5
      vertex 3.30869 2.56855 32.5
    endloop
  endfacet
  facet normal 0 0 1
    outer loop
      vertex 0.0547819 76.995 32.5
      vertex 1.33975 82 32.5
      vertex 0.489435 80.0902 32.5
    endloop
  endfacet
  facet normal 0 0 1
    outer loop
      vertex 3.30869 2.56855 32.5
      vertex 0.000525435 10.005 32.5
      vertex 1.90983 4.12215 32.5
    endloop
  endfacet
  facet normal 0 0 1
    outer loop
      vertex 0.0547819 76.995 32.5
      vertex 0.489435 80.0902 32.5
      vertex 0.0547819 78.0453 32.5
    endloop
  endfacet
  facet normal 0 0 1
    outer loop
      vertex 1.90983 4.12215 32.5
      vertex 0.000525435 10.005 32.5
      vertex 0.864546 5.93263 32.5
    endloop
  endfacet
  facet normal 0 0 1
    outer loop
      vertex 0.864546 5.93263 32.5
      vertex 0.000525435 10.005 32.5
      vertex 0.218525 7.92088 32.5
    endloop
  endfacet
  facet normal 0 0 1
    outer loop
      vertex 0.218525 7.92088 32.5
      vertex 0.000525435 10.005 32.5
      vertex 0 10 32.5
    endloop
  endfacet
  facet normal -0 0 1
    outer loop
      vertex 10.005 86.9995 32.5
      vertex 71.995 86.9452 32.5
      vertex 71.995 87 32.5
    endloop
  endfacet
  facet normal 0 0 1
    outer loop
      vertex 71.995 86.9452 32.5
      vertex 10.005 86.9995 32.5
      vertex 71.995 0.000525435 32.5
    endloop
  endfacet
  facet normal 0 0 1
    outer loop
      vertex 10.005 86.9995 32.5
      vertex 71.995 87 32.5
      vertex 10.005 87 32.5
    endloop
  endfacet
  facet normal -0 0 1
    outer loop
      vertex 10.005 0.0547819 32.5
      vertex 71.995 0.000525435 32.5
      vertex 10.005 86.9995 32.5
    endloop
  endfacet
  facet normal 0 0 1
    outer loop
      vertex 71.995 0.000525435 32.5
      vertex 10.005 0.0547819 32.5
      vertex 71.995 0 32.5
    endloop
  endfacet
  facet normal 0 0 1
    outer loop
      vertex 71.995 0 32.5
      vertex 10.005 0.0547819 32.5
      vertex 10.005 0 32.5
    endloop
  endfacet
  facet normal 0 0 1
    outer loop
      vertex 81.7815 79.0791 32.5
      vertex 81.9995 76.995 32.5
      vertex 82 77 32.5
    endloop
  endfacet
  facet normal 0 0 1
    outer loop
      vertex 71.995 86.9452 32.5
      vertex 81.9995 76.995 32.5
      vertex 81.7815 79.0791 32.5
    endloop
  endfacet
  facet normal 0 0 1
    outer loop
      vertex 81.9995 76.995 32.5
      vertex 71.995 86.9452 32.5
      vertex 81.9452 10.005 32.5
    endloop
  endfacet
  facet normal 0 0 1
    outer loop
      vertex 71.995 0.000525435 32.5
      vertex 81.9452 10.005 32.5
      vertex 71.995 86.9452 32.5
    endloop
  endfacet
  facet normal 0 0 1
    outer loop
      vertex 71.995 86.9452 32.5
      vertex 81.7815 79.0791 32.5
      vertex 81.1355 81.0674 32.5
    endloop
  endfacet
  facet normal 0 -0 1
    outer loop
      vertex 80.6603 5 32.5
      vertex 81.9452 10.005 32.5
      vertex 71.995 0.000525435 32.5
    endloop
  endfacet
  facet normal 0 0 1
    outer loop
      vertex 71.995 86.9452 32.5
      vertex 81.1355 81.0674 32.5
      vertex 80.0902 82.8779 32.5
    endloop
  endfacet
  facet normal 0 0 1
    outer loop
      vertex 81.9452 10.005 32.5
      vertex 81.5106 6.90983 32.5
      vertex 81.9452 8.95471 32.5
    endloop
  endfacet
  facet normal 0 0 1
    outer loop
      vertex 71.995 86.9452 32.5
      vertex 80.0902 82.8779 32.5
      vertex 78.6913 84.4314 32.5
    endloop
  endfacet
  facet normal 0 0 1
    outer loop
      vertex 81.9452 10.005 32.5
      vertex 80.6603 5 32.5
      vertex 81.5106 6.90983 32.5
    endloop
  endfacet
  facet normal 0 0 1
    outer loop
      vertex 71.995 86.9452 32.5
      vertex 78.6913 84.4314 32.5
      vertex 77 85.6603 32.5
    endloop
  endfacet
  facet normal 0 0 1
    outer loop
      vertex 80.6603 5 32.5
      vertex 71.995 0.000525435 32.5
      vertex 79.4314 3.30869 32.5
    endloop
  endfacet
  facet normal 0 0 1
    outer loop
      vertex 71.995 86.9452 32.5
      vertex 77 85.6603 32.5
      vertex 75.0902 86.5106 32.5
    endloop
  endfacet
  facet normal 0 0 1
    outer loop
      vertex 79.4314 3.30869 32.5
      vertex 71.995 0.000525435 32.5
      vertex 77.8779 1.90983 32.5
    endloop
  endfacet
  facet normal -0 0 1
    outer loop
      vertex 71.995 86.9452 32.5
      vertex 75.0902 86.5106 32.5
      vertex 73.0453 86.9452 32.5
    endloop
  endfacet
  facet normal 0 0 1
    outer loop
      vertex 77.8779 1.90983 32.5
      vertex 71.995 0.000525435 32.5
      vertex 76.0674 0.864546 32.5
    endloop
  endfacet
  facet normal 0 0 1
    outer loop
      vertex 76.0674 0.864546 32.5
      vertex 71.995 0.000525435 32.5
      vertex 74.0791 0.218525 32.5
    endloop
  endfacet
  facet normal 0 0 1
    outer loop
      vertex 74.0791 0.218525 32.5
      vertex 71.995 0.000525435 32.5
      vertex 72 0 32.5
    endloop
  endfacet
  facet normal -0 0 1
    outer loop
      vertex 81.9995 76.995 32.5
      vertex 82 10.005 32.5
      vertex 82 76.995 32.5
    endloop
  endfacet
  facet normal 0 0 1
    outer loop
      vertex 82 10.005 32.5
      vertex 81.9995 76.995 32.5
      vertex 81.9452 10.005 32.5
    endloop
  endfacet
  facet normal 0 0 -1
    outer loop
      vertex 82 10.005 0
      vertex 81.9995 76.995 0
      vertex 82 76.995 0
    endloop
  endfacet
  facet normal 0 -0 -1
    outer loop
      vertex 81.9995 76.995 0
      vertex 82 10.005 0
      vertex 81.9452 10.005 0
    endloop
  endfacet
  facet normal 0 0 -1
    outer loop
      vertex 81.9995 76.995 0
      vertex 81.7815 79.0791 0
      vertex 82 77 0
    endloop
  endfacet
  facet normal 0 0 -1
    outer loop
      vertex 0.000525435 10.005 0
      vertex 81.9995 76.995 0
      vertex 81.9452 10.005 0
    endloop
  endfacet
  facet normal 0 0 -1
    outer loop
      vertex 81.9995 76.995 0
      vertex 0.0547819 76.995 0
      vertex 71.995 86.9452 0
    endloop
  endfacet
  facet normal 0 -0 -1
    outer loop
      vertex 0.000525435 10.005 0
      vertex 0.218525 7.92088 0
      vertex 0 10 0
    endloop
  endfacet
  facet normal -0 0 -1
    outer loop
      vertex 71.995 86.9452 0
      vertex 0.0547819 76.995 0
      vertex 10.005 86.9995 0
    endloop
  endfacet
  facet normal 0 0 -1
    outer loop
      vertex 6.90983 0.489435 0
      vertex 10.005 0.0547819 0
      vertex 8.95471 0.0547819 0
    endloop
  endfacet
  facet normal 0 -0 -1
    outer loop
      vertex 7.92088 86.7815 0
      vertex 10.005 86.9995 0
      vertex 0.0547819 76.995 0
    endloop
  endfacet
  facet normal 0 0 -1
    outer loop
      vertex 5 1.33975 0
      vertex 10.005 0.0547819 0
      vertex 6.90983 0.489435 0
    endloop
  endfacet
  facet normal -0 0 -1
    outer loop
      vertex 10.005 86.9995 0
      vertex 7.92088 86.7815 0
      vertex 10 87 0
    endloop
  endfacet
  facet normal 0 0 -1
    outer loop
      vertex 10.005 0.0547819 0
      vertex 5 1.33975 0
      vertex 0.218525 7.92088 0
    endloop
  endfacet
  facet normal 0 0 -1
    outer loop
      vertex 7.92088 86.7815 0
      vertex 0.0547819 76.995 0
      vertex 5.93263 86.1355 0
    endloop
  endfacet
  facet normal 0 0 -1
    outer loop
      vertex 0.218525 7.92088 0
      vertex 5 1.33975 0
      vertex 3.30869 2.56855 0
    endloop
  endfacet
  facet normal 0 0 -1
    outer loop
      vertex 5.93263 86.1355 0
      vertex 0.0547819 76.995 0
      vertex 4.12215 85.0902 0
    endloop
  endfacet
  facet normal 0 0 -1
    outer loop
      vertex 0.218525 7.92088 0
      vertex 3.30869 2.56855 0
      vertex 1.90983 4.12215 0
    endloop
  endfacet
  facet normal 0 0 -1
    outer loop
      vertex 4.12215 85.0902 0
      vertex 0.0547819 76.995 0
      vertex 2.56855 83.6913 0
    endloop
  endfacet
  facet normal 0 0 -1
    outer loop
      vertex 0.218525 7.92088 0
      vertex 1.90983 4.12215 0
      vertex 0.864546 5.93263 0
    endloop
  endfacet
  facet normal 0 0 -1
    outer loop
      vertex 2.56855 83.6913 0
      vertex 0.0547819 76.995 0
      vertex 1.33975 82 0
    endloop
  endfacet
  facet normal 0 0 -1
    outer loop
      vertex 0.000525435 10.005 0
      vertex 10.005 0.0547819 0
      vertex 0.218525 7.92088 0
    endloop
  endfacet
  facet normal 0 0 -1
    outer loop
      vertex 1.33975 82 0
      vertex 0.0547819 76.995 0
      vertex 0.489435 80.0902 0
    endloop
  endfacet
  facet normal 0 0 -1
    outer loop
      vertex 0.489435 80.0902 0
      vertex 0.0547819 76.995 0
      vertex 0.0547819 78.0453 0
    endloop
  endfacet
  facet normal 0 0 -1
    outer loop
      vertex 10.005 0.0547819 0
      vertex 71.995 0.000525435 0
      vertex 71.995 0 0
    endloop
  endfacet
  facet normal 0 0 -1
    outer loop
      vertex 0.000525435 10.005 0
      vertex 71.995 0.000525435 0
      vertex 10.005 0.0547819 0
    endloop
  endfacet
  facet normal 0 0 -1
    outer loop
      vertex 10.005 0.0547819 0
      vertex 71.995 0 0
      vertex 10.005 0 0
    endloop
  endfacet
  facet normal 0 -0 -1
    outer loop
      vertex 0.0547819 76.995 0
      vertex 81.9995 76.995 0
      vertex 0.000525435 10.005 0
    endloop
  endfacet
  facet normal 0 0 -1
    outer loop
      vertex 71.995 86.9452 0
      vertex 10.005 86.9995 0
      vertex 71.995 87 0
    endloop
  endfacet
  facet normal -0 0 -1
    outer loop
      vertex 71.995 87 0
      vertex 10.005 86.9995 0
      vertex 10.005 87 0
    endloop
  endfacet
  facet normal 0 0 -1
    outer loop
      vertex 81.5106 6.90983 0
      vertex 81.9452 10.005 0
      vertex 81.9452 8.95471 0
    endloop
  endfacet
  facet normal 0 0 -1
    outer loop
      vertex 80.6603 5 0
      vertex 81.9452 10.005 0
      vertex 81.5106 6.90983 0
    endloop
  endfacet
  facet normal 0 0 -1
    outer loop
      vertex 0.000525435 10.005 0
      vertex 81.9452 10.005 0
      vertex 71.995 0.000525435 0
    endloop
  endfacet
  facet normal 0 0 -1
    outer loop
      vertex 81.9452 10.005 0
      vertex 80.6603 5 0
      vertex 71.995 0.000525435 0
    endloop
  endfacet
  facet normal 0 0 -1
    outer loop
      vertex 81.9995 76.995 0
      vertex 71.995 86.9452 0
      vertex 81.7815 79.0791 0
    endloop
  endfacet
  facet normal 0 0 -1
    outer loop
      vertex 71.995 0.000525435 0
      vertex 80.6603 5 0
      vertex 79.4314 3.30869 0
    endloop
  endfacet
  facet normal 0 0 -1
    outer loop
      vertex 81.7815 79.0791 0
      vertex 71.995 86.9452 0
      vertex 81.1355 81.0674 0
    endloop
  endfacet
  facet normal 0 0 -1
    outer loop
      vertex 71.995 0.000525435 0
      vertex 79.4314 3.30869 0
      vertex 77.8779 1.90983 0
    endloop
  endfacet
  facet normal 0 0 -1
    outer loop
      vertex 81.1355 81.0674 0
      vertex 71.995 86.9452 0
      vertex 80.0902 82.8779 0
    endloop
  endfacet
  facet normal 0 0 -1
    outer loop
      vertex 71.995 0.000525435 0
      vertex 77.8779 1.90983 0
      vertex 76.0674 0.864546 0
    endloop
  endfacet
  facet normal 0 0 -1
    outer loop
      vertex 80.0902 82.8779 0
      vertex 71.995 86.9452 0
      vertex 78.6913 84.4314 0
    endloop
  endfacet
  facet normal 0 0 -1
    outer loop
      vertex 71.995 0.000525435 0
      vertex 76.0674 0.864546 0
      vertex 74.0791 0.218525 0
    endloop
  endfacet
  facet normal 0 0 -1
    outer loop
      vertex 78.6913 84.4314 0
      vertex 71.995 86.9452 0
      vertex 77 85.6603 0
    endloop
  endfacet
  facet normal 0 0 -1
    outer loop
      vertex 71.995 0.000525435 0
      vertex 74.0791 0.218525 0
      vertex 72 0 0
    endloop
  endfacet
  facet normal 0 0 -1
    outer loop
      vertex 77 85.6603 0
      vertex 71.995 86.9452 0
      vertex 75.0902 86.5106 0
    endloop
  endfacet
  facet normal 0 0 -1
    outer loop
      vertex 75.0902 86.5106 0
      vertex 71.995 86.9452 0
      vertex 73.0453 86.9452 0
    endloop
  endfacet
  facet normal 0 0 -1
    outer loop
      vertex 0 10.005 0
      vertex 0.0547819 76.995 0
      vertex 0.000525435 10.005 0
    endloop
  endfacet
  facet normal -0 0 -1
    outer loop
      vertex 0.0547819 76.995 0
      vertex 0 10.005 0
      vertex 0 76.995 0
    endloop
  endfacet
  facet normal -1 0 0
    outer loop
      vertex 0 10.005 0
      vertex 0 76.995 32.5
      vertex 0 76.995 0
    endloop
  endfacet
  facet normal -1 -0 0
    outer loop
      vertex 0 76.995 32.5
      vertex 0 10.005 0
      vertex 0 10.005 32.5
    endloop
  endfacet
  facet normal 0 1 -0
    outer loop
      vertex 71.995 87 0
      vertex 10.005 87 32.5
      vertex 71.995 87 32.5
    endloop
  endfacet
  facet normal 0 1 0
    outer loop
      vertex 10.005 87 32.5
      vertex 71.995 87 0
      vertex 10.005 87 0
    endloop
  endfacet
  facet normal 0 -1 0
    outer loop
      vertex 10.005 0 0
      vertex 71.995 0 32.5
      vertex 10.005 0 32.5
    endloop
  endfacet
  facet normal 0 -1 -0
    outer loop
      vertex 71.995 0 32.5
      vertex 10.005 0 0
      vertex 71.995 0 0
    endloop
  endfacet
endsolid OpenSCAD_Model
